<svg width="1921" height="461" viewBox="0 0 1921 461" fill="none" xmlns="http://www.w3.org/2000/svg">
<path fill-rule="evenodd" clip-rule="evenodd" d="M1920 0H0V461H1920V448H1921V414H1920V50H1920.5V16H1920V0ZM1920 16L1886.5 16V50H1920V16ZM1920 414H1887V448H1920V414ZM415 50V16L381 16V50H415ZM1381 16V50H1347V16L1381 16ZM415 448V414H381V448H415ZM1381 414V448H1347V414H1381ZM837 50V16L803 16V50H837ZM1803 16V50H1769V16L1803 16ZM837 448V414H803V448H837ZM1803 414V448H1769V414H1803ZM353 50V16L319 16V50H353ZM1319 16V50H1285V16L1319 16ZM353 448V414H319V448H353ZM1319 414V448H1285V414H1319ZM775 50V16L741 16V50H775ZM1741 16V50H1707V16L1741 16ZM775 448V414H741V448H775ZM1741 414V448H1707V414H1741ZM293 50V16L259 16V50H293ZM1259 16V50H1225V16L1259 16ZM293 448V414H259V448H293ZM1259 414V448H1225V414H1259ZM715 50V16L681 16V50H715ZM1681 16V50H1647V16L1681 16ZM715 448V414H681V448H715ZM1681 414V448H1647V414H1681ZM233 50V16L199 16V50H233ZM1199 16V50H1165V16L1199 16ZM233 448V414H199V448H233ZM1199 414V448H1165V414H1199ZM655 50V16L621 16V50H655ZM1621 16V50H1587V16L1621 16ZM655 448V414H621V448H655ZM1621 414V448H1587V414H1621ZM173 50V16L139 16V50H173ZM1139 16V50H1105V16L1139 16ZM173 448V414H139V448H173ZM1139 414V448H1105V414H1139ZM595 50V16L561 16V50H595ZM1561 16V50H1527V16L1561 16ZM595 448V414H561V448H595ZM1561 414V448H1527V414H1561ZM113 50V16L79 16V50H113ZM1079 16V50H1045V16L1079 16ZM113 448V414H79V448H113ZM1079 414V448H1045V414H1079ZM535 50V16L501 16V50H535ZM1501 16V50H1467V16L1501 16ZM535 448V414H501V448H535ZM1501 414V448H1467V414H1501ZM957 50V16L923 16V50H957ZM957 414V448H923V414H957ZM53 50V16L19 16L19 50H53ZM1019 16V50H985V16L1019 16ZM53 448V414H19L19 448H53ZM1019 414V448H985V414H1019ZM475 50V16L441 16V50H475ZM1441 16V50H1407V16L1441 16ZM475 448V414H441V448H475ZM1441 414V448H1407V414H1441ZM897 50V16L863 16V50H897ZM1863 16V50L1829 50V16L1863 16ZM897 448V414H863V448H897ZM1863 414V448H1829V414H1863Z" fill="#222222"/>
</svg>
